/* XPM */
static char *scroll[] = {
/* columns rows colors chars-per-pixel */
"28 156 14 1 ",
"  c None",
". c black",
"X c #4B402A",
"o c #6E4122",
"O c #735A36",
"+ c #655940",
"@ c #806E49",
"# c #AC7249",
"$ c #B88452",
"% c #AF8F61",
"& c #BEA87B",
"* c #CF9A4F",
"= c #CDBA84",
"- c #D7C295",
/* pixels */
"            ....            ",
"          ..XXXX..          ",
"         .XX++++XX.         ",
"        .X++@@@@++X.        ",
"        .X+@&--&@+X.        ",
"       .X+@&----&@+X.       ",
"       .X+@------@+X.       ",
"       .X+@------@+X.       ",
"       .X+@&----&@+X.       ",
"        .X+@&--&@+X.        ",
"        .X++@@@@++X.        ",
"        ..XX++++XX..        ",
"       .X+..XXXX..+X.       ",
"       .X++@....@++X.       ",
"       .X++@@--@@++X.       ",
"       .X++@@--@@++X.       ",
"       .X++@@--@@++X.       ",
"       .X++@@--@@++X.       ",
"      ................      ",
"     .XX++@@----@@++XX.     ",
"     .XXX++@@--@@++XXX.     ",
" .......................... ",
".OOOO%%%%%%======%%%%%%OOOO.",
".OOOO%%%%%%======%%%%%%OOOO.",
".OOOO%%%%%%======%%%%%%OOOO.",
"............................",
".XX+X++++@+@@@@@@+@++++X+XX.",
"............................",
".oo#o###$*$******$*$###o#oo.",
".oo#o###$*$******$*$###o#oo.",
".oo#o###$*$******$*$###o#oo.",
".oo#o###$*$******$*$###o#oo.",
".oo#o###$*$******$*$###o#oo.",
".oo#o###$*$******$*$###o#oo.",
".oo#o###$*$******$*$###o#oo.",
".oo#o###$*$******$*$###o#oo.",
".oo#o###$*$******$*$###o#oo.",
".oo#o###$*$******$*$###o#oo.",
".oo#o###$*$******$*$###o#oo.",
".oo#o###$*$******$*$###o#oo.",
".oo#o###$*$******$*$###o#oo.",
".oo#o###$*$******$*$###o#oo.",
".oo#o###$*$******$*$###o#oo.",
".oo#o###$*$******$*$###o#oo.",
".oo#o###$*$******$*$###o#oo.",
".oo#o###$*$******$*$###o#oo.",
".oo#o###$*$******$*$###o#oo.",
".oo#o###$*$******$*$###o#oo.",
".oo#o###$*$******$*$###o#oo.",
".oo#o###$*$******$*$###o#oo.",
".oo#o###$*$******$*$###o#oo.",
".oo#o###$*$******$*$###o#oo.",
".oo#o###$*$******$*$###o#oo.",
".oo#o###$*$******$*$###o#oo.",
".oo#o###$*$******$*$###o#oo.",
".oo#o###$*$******$*$###o#oo.",
".oo#o###$*$******$*$###o#oo.",
".oo#o###$*$******$*$###o#oo.",
".oo#o###$*$******$*$###o#oo.",
".oo#o###$*$******$*$###o#oo.",
".oo#o###$*$******$*$###o#oo.",
".oo#o###$*$******$*$###o#oo.",
".oo#o###$*$******$*$###o#oo.",
".oo#o###$*$******$*$###o#oo.",
".oo#o###$*$******$*$###o#oo.",
".oo#o###$*$******$*$###o#oo.",
".oo#o###$*$******$*$###o#oo.",
".oo#o###$*$******$*$###o#oo.",
".oo#o###$*$******$*$###o#oo.",
".oo#o###$*$******$*$###o#oo.",
".oo#o###$*$******$*$###o#oo.",
".oo#o###$*$******$*$###o#oo.",
".oo#o###$*$******$*$###o#oo.",
".oo#o###$*$******$*$###o#oo.",
".oo#o###$*$******$*$###o#oo.",
".oo#o###$*$******$*$###o#oo.",
".oo#o###$*$******$*$###o#oo.",
".oo#o###$*$******$*$###o#oo.",
".oo#o###$*$******$*$###o#oo.",
".oo#o###$*$******$*$###o#oo.",
".oo#o###$*$******$*$###o#oo.",
".oo#o###$*$******$*$###o#oo.",
".oo#o###$*$******$*$###o#oo.",
".oo#o###$*$******$*$###o#oo.",
".oo#o###$*$******$*$###o#oo.",
".oo#o###$*$******$*$###o#oo.",
".oo#o###$*$******$*$###o#oo.",
".oo#o###$*$******$*$###o#oo.",
".oo#o###$*$******$*$###o#oo.",
".oo#o###$*$******$*$###o#oo.",
".oo#o###$*$******$*$###o#oo.",
".oo#o###$*$******$*$###o#oo.",
".oo#o###$*$******$*$###o#oo.",
".oo#o###$*$******$*$###o#oo.",
".oo#o###$*$******$*$###o#oo.",
".oo#o###$*$******$*$###o#oo.",
".oo#o###$*$******$*$###o#oo.",
".oo#o###$*$******$*$###o#oo.",
".oo#o###$*$******$*$###o#oo.",
".oo#o###$*$******$*$###o#oo.",
".oo#o###$*$******$*$###o#oo.",
".oo#o###$*$******$*$###o#oo.",
".oo#o###$*$******$*$###o#oo.",
".oo#o###$*$******$*$###o#oo.",
".oo#o###$*$******$*$###o#oo.",
".oo#o###$*$******$*$###o#oo.",
".oo#o###$*$******$*$###o#oo.",
".oo#o###$*$******$*$###o#oo.",
".oo#o###$*$******$*$###o#oo.",
".oo#o###$*$******$*$###o#oo.",
".oo#o###$*$******$*$###o#oo.",
".oo#o###$*$******$*$###o#oo.",
".oo#o###$*$******$*$###o#oo.",
".oo#o###$*$******$*$###o#oo.",
".oo#o###$*$******$*$###o#oo.",
".oo#o###$*$******$*$###o#oo.",
".oo#o###$*$******$*$###o#oo.",
".oo#o###$*$******$*$###o#oo.",
".oo#o###$*$******$*$###o#oo.",
".oo#o###$*$******$*$###o#oo.",
".oo#o###$*$******$*$###o#oo.",
".oo#o###$*$******$*$###o#oo.",
".oo#o###$*$******$*$###o#oo.",
".oo#o###$*$******$*$###o#oo.",
".oo#o###$*$******$*$###o#oo.",
".oo#o###$*$******$*$###o#oo.",
".oo#o###$*$******$*$###o#oo.",
".oo#o###$*$******$*$###o#oo.",
"............................",
".XX+X++++@+@@@@@@+@++++X+XX.",
"............................",
".OOOO%%%%%%======%%%%%%OOOO.",
".OOOO%%%%%%======%%%%%%OOOO.",
".OOOO%%%%%%======%%%%%%OOOO.",
" .......................... ",
"     .XXX++@@--@@++XXX.     ",
"     .XX++@@----@@++XX.     ",
"      ................      ",
"       .X++@@--@@++X.       ",
"       .X++@@--@@++X.       ",
"       .X++@@--@@++X.       ",
"       .X++@@--@@++X.       ",
"       .X++@....@++X.       ",
"       .X+..XXXX..+X.       ",
"        ..XX++++XX..        ",
"        .X++@@@@++X.        ",
"        .X+@&--&@+X.        ",
"       .X+@&----&@+X.       ",
"       .X+@------@+X.       ",
"       .X+@------@+X.       ",
"       .X+@&----&@+X.       ",
"        .X+@&--&@+X.        ",
"        .X++@@@@++X.        ",
"         .XX++++XX.         ",
"          ..XXXX..          ",
"            ....            "
};
