/* XPM */
static char *ceiling_21709823843[] = {
/* columns rows colors chars-per-pixel */
"128 128 10 1 ",
"  c #060201",
". c #0D0403",
"X c #130605",
"o c #160806",
"O c #190907",
"+ c #160A08",
"@ c #1B0C09",
"# c #200F0B",
"$ c #22100C",
"% c #271510",
/* pixels */
"OO@oooooOOOOOXXXXXX.XXXXXXXXXooXX..X....... .. ..XXXOXXX.   .  X...XX.X.XXXXoXXXXXXXXXOOooXoXXoXXOXoXXOOooXXoXXoXXoXooooXXoOOOoo",
"OOO@oOooOXXOXOXXXX.XXXXXX..XXXXoXX.X.XXX.XXXXXXXXXX.. .X.XXXXXXX.XXXXXXXXXXXXXXXX.XXXXXXoXXoXXXXXXXXOOXXooXXXooooooOoOOOOOoOOOOO",
"$O@O##@oOOXXXXXXXXXXX#OXXXXX...X....... .... . ..XXXXX... ....X..X.XXXXXXXXXXXooOX.XXXXX...XXXXXXX..XXXXX..XX.XXXXX..XX.XXXXXXXX",
"oXooooooXXOXOXOXooXXXXXX..XXXXXX.XX.XX.X....X....X.    X.XXXXXXXXoXXXoOXXXX.XX.X.....XXX.XXXXXXoXXXXXXXXoXXXXoXoooXXooXXXXoXoooo",
"OOOOoo@oXXXXXXoXXXOXXXXXXXXXXXX......... ..... ......... XX.....XX.XXXXXXOXXXXXXXX...XOOooXOoOooXXOOoOOooXooOOXX.XXoXoXXXXX.XX.X",
"oOOO@o@##OOOXXXXXXXXXX.X..XXXXX.X.......XXXX.XX.........XXX.XX.. ......X.... ..XX..XXXXoXXXXoXXoOXXOXOOXOOOO@OXOooOXXXoXXXXOoX..",
"O#oOooXoXoXXXXXXXoXXXXXXX.XX.X. ...X......... .XX.X. XX . ... ....X.X.XXXXXXXXXXXXXXXXXXXXXXOXooOOOXXXoXXXXXooXooXXXXOOOoOOOOOoO",
"OOoooooOOoXXXXXXXXXXXXXOXXXXXX...X...XX.X.X...X . ... ..X ...X.X...XXX...  .XX..X.X..X.XXXXXXOO@OOXOXXoXXXXXXXXXXXXXXoOoo@OOOoXX",
"XX..XXXXXXXXX.XXXX.X...XXXOXXX.XX.XX..XXXX.  . .... ...XX...X.X....X.X.XXXXXXXXXX.XXXXXXXXXXXXXXXXXOoXOoXXXX.X....X..XXX....X..X",
"ooXXXXX....XXX.XX..XoOoX.X.XXXX.X..X..... .....X...    . .. .. ..XXX...XX.......X.X...XXXXXXXXXXXOXOOOOXXXXXXXXXXXXXXXXXoXXooooX",
"oXXXXXXOXXXXXXXXXooX     XXXXX.......X.... ... .       .       .. . XXX..XXXXXX.XXXXXX.XoXooXXXXXXXX.XXXXXX.XXXXooOOXXX...oXoXOo",
"oooXXOXXXXXXXXXX...XXXXX...X.XXX..X.. .. ..                 .    .. . .  . ..X.XXXXXXX.XooOoOooXXXXXXXoOoXoXXooX.XooXoXXXXXXXooo",
"XoOXXXoXXXXXXXX....X.XX...X...X....... .X .. . .               ...XX...X..XXX. .... XX.X.XXXXXXXXXXXXXXX.XXXXXX.... ..XX..XXXXoo",
"oXOXXOXXXX.X...XX. XXXX.XX.XXXX.......X..XX...X .     .      ..  .. X.....XX.XXXXXX.XXXooOX.XX..XXXXXX .....XXX.... ... ...  .. ",
"XXXOXXXXX..XXXXXX.X..X.XX.XXX... ..XXXX..XX.......... ... X...X...XXX X .XX . .XXXXXXXOXXXXXXXXXXXXXOXXXXXXXXXXXX.XXXXXXXoXXXXXX",
"OOOXXXX.XXXXXXXXX...X. ....XXXXXXXXX.X..X X.X..XX.......X....XX.XoXXXXXX..XXXX... .....X.XXoXX.XoooXXXXX....XXX.X.XXXX...XoXX.XX",
"oOooXXooXXXXXX... X...XXXXXXXXXXXX.X....  .  ....X. .  ..X..XXXooXoX. ...X.XX.XXXXXXXXoooXXXXXXXXXXXXXXX.   .... .XX.. ..XXX.XXX",
"OOOOOooOOXXXXXXX...X..  . .  .... .X..X X..X . .  ....XX....XXXXXXXXXX...X.... . ...XXXX..XXXXX. .  ..XXXX .X...X .XX.X..XXXXXXX",
"#OOOoOoO####OoXX.XXXXX.X.X.X.......X..XX.XX...XXX.. .XXXXXXXXXOXXXXooOXXXXXoXX..XXXXXXXXXXX..XX..XX.XX.X.X.XXXXXX..X.. ...X.X...",
"oXXXXoOOXoOOOOO#oooXoXXXXXXXXXXXXXXXXXXXXXXXXXXXXXXXXXXXX.XXXXXXXoOoX.XXXXXXXXX.X.XXXXXXXX.XXXXX....X.... ..X. ...XX..X.XXXX.X.X",
"OO##O#OOOooXoOOoOOOOO#OooXXoXXXXooXXooooXXXXOXoXoXXXoXXXXXXXX.XX..X.X..XXoooXXXXXX..X. X..... ...X..X.XX.X.XXX    .......X.X.. .",
"#OXO#OO#O#OoXOO#OOOO######oO#########OOO###OO#OOO#OOooXXXXXXoOXXoXX.        ..   . ....XXXXXXXX.. .....X...XXXX.XXXXXXXXXOXXXXoo",
"O#OOO####O#OXXoOOO##O#OOOOOOO#ooO@@@OO#OO#O#OOO###OOOOOOOOOoOOoOOOOoXXXoXXXX....X. ..X.......X...X.XXXX ....X...  .... .XXXXX..X",
"OOO#O###O######O###OOOOOoXoOoOOOoooOOOoooOOOOXOXXXOXoOOXXXXXX.XXXooOXXXoXXXX.XXXXXX.X.X..X.XX.XXX.XXXXX...   .   . ....    .....",
"OOXXXXXOooXXXXoOOOOXXOO#O##O#OXXXXooXXXO@OOOOOoOOOOOOXXX...XXXXXXoOoooXXoOXOOXXXOO#OooXOXXX.XoX.  ..  ... ...XXXXXXXX....  .. ..",
"XXXXXXXXXXXXXXXXXOXXXXOXOoOXXoOOOOOoooOOOOO@OOOOOXOXXXXXXXXXXXXXXXoXXXXXoOOOoXXXOXOoooOXXX.XXXXXX.. .........XX..X....XXXXXX..XX",
"O####OXOOXX#OO#####OOXXXXXXXXXOO@OXXooooOOOOO@O@#OOOooXXXXXXXOXoXXXXoXOoXXXXX.XXooXoooOOXXXXooX.XXXXXX.XX... ... ... . ..X..X ..",
"XOXXXXOoXXOOoooXXXXXO#O##OOOOO#OOOXXXXXo+OOOOOOOXOOOOooXXXXoOOooXXXX....X..X..XXXoXXooooXXXoXXXXX.XX..    ... .  XoX.XXXX.X.....",
"XXXXOO#XOXOXOXX#OOXXXOOX#XOO##O#####@#@@@@@OOOOOOoOoXX. .........XXX.X....X... XXXX.X..XX.XXXXXXXXXXXXXX.XXXXX..XXX.XXXXXXXXX.X.",
"XXXXXXOOOOO###########O#OOX##OO#@#@o@ooooOOO@@@@O#OOOooOooooOOOoXXX . .X.XXXXXOOOO@OOoooXXoXXXXXXoXXXXXXXXXXXXXXX.XXXXOOoOooOoOO",
"XXXXXXXXXXXXXXXXOOOXOXXXOOOOO#O#@O@o@@@o@@@@OOXXoXoXXOoXXXXOOXXX.XXX....... ... ..X..XXoXXOOoooXX.XX.X..XX.oooXXXXoOoooOOoOooooO",
"#O#OXOO#XXXXXXXOOOOOXXXXXXXXXXXO@O@o#@oo@OoooOOooOOOO#OOOooXXXXXXoXXX.X.XXX....XXOoooX..XXXXX.XXXXXXX......XX.X...XX.XXXoooXXoXo",
"#OOOXOOX#XOOOXXXOXXXXXXXXooXXooXXO#OO#OOO#OOOX##@OOOXXXXOooooXooooXOooOOoXXXXXXX...Xo@ooXXoXXOXXXXXXXoXXXXXXXXXXXoOXoXXXOooooooO",
"OOOO#XXOOOX###O#O##OOOOOOOOOO##XOXXXOOOO#XOOOOXXOXO@@@OOOoooOXooXoOOooXXXoXoooXoOooooXXXXX.X.... ..XXX.. XXX....X.XXoooooooo@OoO",
"#O#OOOXO#XOOXOOOOOO#OOOOOOOOoXoOO##OXXXOXXOOX####@OOXXXOooXXXOOOOOXXXXXOOXXXXXXXXooO@@@@OX@OXXX.XXXX ..  ...... .. .  ..XXXXXO@@",
"O#O#OO#####O#O##O#OOOOOOXOOOoOOOOOO#OOO##OOOOOOXOOXO@O@OooooXXOOOOOoXoOOOXooXXoooooXooooOXXX.OXX.X..XXXXXXXXX....Xoooo+ooooooXoo",
"#OO#OO#######OOO#OOOOXXXOOOoOO#OOOXOXOOOO####XO#@OO@@@@@XXooXoO@####OO#OOOOOOXoooooooo@@OooXXX...XXXoXX..XXXX.... ....XXoXX.XX.X",
"OOO#####O#########OOO###O#####OOOOOOOXXXXXXXXO#O@@OOOOO@@o@ooOooXXOOXXoXXOOXooOooXoO@oooO@OOOO@OXXXXXXOXXXXXXXoOoXXOXXXX.X.XX.oX",
"#O##O#OOO#XOOO####O##XOOOOOOOO#O##O#OOO###O#OOO#@#@@@@@Oo@@oO@OOo##OOOOXXXOOOOoOOOoOXoooooOoOXX.XX.XX..XXXoOOOOOOOOOOooOoXOOXOoO",
"###OOO#OO##O##OOOOO#OXXXXOOOooo#OOOXO#OOOOOOOOOO@O@@#@OXo@o@OoooXXOXXXXXXoXOOOOooooXXooooooXX+X.XXXXXXXXooOOXXoOOOOOOOO@@@@O@@#O",
"O#O####OO#O#O##O#OOOO#O#####O###@@@@o@@@##O#OO#O@@@@@O@@@@@@@@#O#OOOXXXXXXXoOOOOooOOOOooXOOOOX....XX.XXXXXOooo@OOOooooooOoOOOooo",
"OO###################XO#OX####O#@@###@@@O##O#@OO@X@O@@@#@@@@#@@###OXOOXXXOXOOXOOOOooOOoO+XOXOOOXXXXXooXXXXooooooOooOo+@+oXXOOXXo",
"#O#OXOOOOOO###OOO###################@@OXXOOO+O##$$$$#@@@$$##@OXXXXXoOOOXoXo@#O@O#OOOOoOO##@##O#+OXXOoO@@OoOoXooXXXooOo++O@OoO@@@",
"O#OOO##OOO#OXX#OOOOXXXXOXXOOXXXOO@@@@#@#OOOOOOOO+@@@@@@@OO@@@@@@ooOOOOOOOOoooooOoOO####OOOO@#O@##@#@@@@@O##O@@@@@@@OO@@+OoOoXXXX",
"OXO#OOOOOOOOO#OO#OO##OOOOO#OOOXOooo@o@oXXo+OoXXX.+@@#######O@###@##@#O##@O@O@@o@@@@@OO#OOOO+OOO+OoXXooXooooXXoXoXooo+@@@@@$@@OOO",
"###########O#OOOOOOOXO#XO##O#X#O#@@@o@OOOOO@oOOO@@+@+@@@XOOXX@@#########$@###########OOO#O#@#@#####@@@#####@@@#@@@@@+++XX+..oOoo",
"#########OO#O################O##@#######@@@@@$@$@#++X@OXOOOOO@OOoXOOOOOOO@OooOo@oooO@@#@##@@#O@#@O@@@@@@#OO#@@@@@#@@@@@@@@@@@@@@",
"##OXOOX#O##O##OOOOOO##O#OOO##OO#@#@@@@@#@#@@$$@@@$$$@#O@@XXOOOOO#@OOoOOXXooooooooo@O@@OOX#O#O+++XXoX@@@ooO#oOOO@@@@@++@+@@++++X.",
"O##O#O#OO#O#O#O##OOOO#OOOOOOOOooOOOO@#OO@@@@@@@@@$$$##@OXOOO+X+XOX.XXX+++o++@##@#@@++++.+..+.++@@@@OOOO###O++@#@oXXXoooooo+@@@+@",
"O##O#########O##################@O@@@@#O@#@@@#@@@$##O#OOOOOOOOOOOO@oO+XXXXXXX+XXX.....++++++++..+++++++@@#O#OO#####@O###@#@@#@#@",
"##########$####%$$$%%$##$$$$%####@O@OO#O@@@@$###@@@OOO#@OOO##OOOoOXXXXXoXX+ooX++.X.@@@@@++@++OOO@@#OOO@O++++++O#+o++@ooXoO@@@@@O",
"#OO#O#O##########O#O#O##@O@oOOOOOO#######$###@#@#$#####@O#@O#OO#@O@@@@++++o@@+X+XXXO@@@@O@O+@OX+++++.+.X+..X+XXXoo++o@@OO+@@@@@@",
"O#######################$@$$$$@@O##O#OO#@###$#$#$$@$##@#$####@##@###@@@$@@+@@@@@@+O@@+@@#OOOO##@@#OOO+XX++XOO+XOooooooOoO+++....",
"O#XOOO#O#OOOOO#O########@##$#@@$######$#@@@o@@@@@@#@##@@###@@#####$$$@@@@##+###@@+XX@#@@OO++O++@+@@@++O@@OO#@OO@@@@@@@#@##@@@##$",
"O####OOO#OO#####O#####O#@@@@O@@@####O#O#@#@####@@@###$#$#$$$$######$$$@$#@####@@#@#@@@@@##@@@#+@@@@@++++@@OOOO++o+@@@@@OOOO+@@@@",
"OXXOXOXOOXOXXXOOOoXXXXXX@#@@@@#@OO#OOOOO@@@#@@@@@OO@@@$@@###$$####OO@++++@@@@@@@@@@OXOoo++++.......+++++++O+O+++o@o@Oo@OO@+@@@@@",
"XOOOoooOOXoXXO#OOO###@#O@@OO@OO@OO#oooOO@OOO+@@@@@@@O@@@#@@@#@#@@@oo+@oo+X.X+XX.XXXXoooooXXO+OO+@+X++.+..++XX+O++++.++@@@@OO+@@@",
"XXXXoXXXXXXXOOXOoXXoXoooOOOOO@@@###O@@@@@#@@@@@@@@@@@@@@###@#@O@@@@oo++@++XO@OX@ooooooooXo+o+XO++@OOO++#O+OO++X+..++..+@XO+XXXOX",
"X##O##O#XoOXXXXXooooOoooXX+X++++OOXo++o+XXoXXXXXXO@@@#@OO@@@@OOXooXXooXoXXXoXOO++oXXXXoooXOoOOXo++.+X+.XO@@+..XX+..++...XXXXXX+X",
"#XXXOOO####OO######OOOOXooo+O++OoOOO@@@@@@@@o@@@@OXX..XX.XX+OO@@@oooXooo@OoXXXXOo+++ooooOOO@+OXo.+++XX.++.XXX+OXX+XX.XX+XX....XX",
"OOXOO#OOOOOOOOXOoOOOOO#O@@@@$@@@@@@@@@@@@@@@o@OOOOOOXOOOO@O@@@@@@@oOoo+X@++OOooXoXX+ooo++oXXoXXX..X.X+++OX.XX.X....  ...   ....+",
"XoO#OXOOoXXO#O#OO#######$@OO@OOOXXOO$@#@$$$$$$$$####@@OO#$#@@#@@o@oX..XXX ooooXoXXXXoXXoXooXoO++@O@@O.XXXXOXXXX@O++X+OXXXX+.X.X.",
"##OOOXOXOXO#OOXO#oOoOXOXoO+OooooOOOOO@ooooXooooOOOXOOOO@OOOOXOXO+ooXooooooXOoooooXXXXX.XXXXXooXO+O@OXOO+oX+++XXX+..X..XX........",
"OO#O###O#OOOOOO#oO#OO#O#O@O@O@OO@OOOO@OO@O@@@@@OOOOXOOO@@@@@@O+XXooXXooXXoOXoXooooXXoooooooooO+OX.X.... ..X. . . . .............",
"@@#@@@@OOOO##O########OoX@@@O@###O###OOOOOOOOO@oO@@@@@@@@@@O@@@@@oooo@oo+o+@##@@@@$$$++o+oO@OOooOOOoXXXXoXoXX.XX.X.XX.X.X.......",
"#@O@#@@OOO##O#O@O#OOOOOOO@@@##OOO#OO#O#@#@OO@@@@##@@#@##@oo@oo@@@@@O#@###@#@@oO@+@@+@@@@@@@oOOoOo+OOooo+OOoooooooXXXX++XXXX.....",
"@@OOoOOO#OOO###@#O########@#@#O########@#########@@##@@@##$@oX.Xooo@@@@@@o+o@@@#@@@+@@@+o@@OO@@OOOOOO@@O@OO@oOOOooooO@@OoO+OoX.X",
"###@############$%##OO###@@@#@OOO##O#O@@O#@#@@@###$#@O@@@@@@+@@#@#######@#####@@$@@@$@$$##@@@@@@@@@@oOO@@@@o@OO@@ooXXXX.........",
"@#@@oO@@OO#OO#O###O#####@#####@####O##O$###@#@O#@O@O@@+@@+@@@@@@Oooo@@@@#O@@@@@@@@@@@@@@@@@@@#@@OOOOO@OoOOOoOO@@@@++++X++X...X..",
"ooOoO@@@O######O#OO#@##OO@O@O@O#####@@######@@@@@#@##@@@@@#$###@#@#@@@@@O@O@@@@@#@@@$$#@@@@@@@@@OOXoOoOOXooooX...... ...     . .",
"XXXXoo@@@OO##@@O@@OO@@@#@@OOO@OOOOOOOOOOXOOOOoo@O+OOOOooOoo@@oo@@#@@@@@@O#@O@@@+OOO@OOO@@+@o+oOOOOOOOOooOXXXX..XXX.X..X.... . ..",
"oOXXXooXXooooooX@OOOoOOO@@oOO@OXoOOOOXOXXooOO@oOOOo+oooooooo@o@o@+Oo@#@@#@#O@#@@O@O+OOOO@@o@@oOOOOOXoXoOooooooooo@OO+ooX.+XX....",
"O@o@OXXoXXOoXXXXXXXX.XXXXXXXXXXXOOoXooOOOOOoXoXooXXooooXXXXXXX....oooXXooXXXoooooXXXXXXoOOOOooOoOOOoOOXXoXXoXX.XX.X..XX..XX..X+.",
"O@OXoooXOXXoXoXooXXXXOXXOXXOOoOOOoXXOoOOoOooOo@#@@@o+oo+OXoXXooo++XXXXXoooXXoo@oX..X..ooOXOOXXoXXOooXoXXXXXXXXXX.X++X......... .",
"XXoXX.XXXoXXoOoXXoooXXXXoXO@OOOOOooOXOOOooOooOoo+oXoXXXXooooOoooo+O@OOoOXoXXXXoXX.XoooX.X......X.... ....... . ... X.  X. .  X+.",
"ooooooXXOXXOoooOOOooOOoooXXooXOOoooooXOoXoooOOOOO@+oXoooXXXXXoXXoooooooooooXoooooooOooXXX.XXoXXXoX.X...X...XXXXX..XXXX.X.X.XX.X.",
"XXoXooXoOoO@OOoooXXXXXXoXXOOoOoOooOOOXoOOOo@O#OO@@@oooooooooOoO@@@@+++@OoXX.  .X......X .X..XXX....XX......... ... ......X...X.X",
"X.XXXoooO@OoOOOoXoXoXoooooX.XXX.XXXXXXXO@ooooOOoooOooo@oo@@OoO@O@@OO@@@@+oo+@o++oOOOXXXXXoOXXoXoooooXXXXoXXXXXXXX.XX..X.XX++XXXX",
"oXX.XooXXXXoOXXXXXXXXXXXXoooXXXXXXXXXXXoXXXXXXXooXoXXXXXXXXXOXooXoooXooooXXXXXooXXXXXX.. ..... ..X......  .. .......XXXX.X..... ",
"XOoXXoXXXXXXoXXXXXOOoXXXooOooOOOXoOOOOXOOO@OO#@#@OoooXooOo@OXooOoXXoXXoX..X..X..X..XX.XXX.XXXXoXXXXXXXXXXX.. .....XXXX...X.X.XXX",
"XoXXX..XX.XoXXXXOoXooooXoXXXXoXooXXXoXXXXXooOOoOOOoO@oOoOOoXXXXXoXXXXXXXXOXXXX.... ..XXX.......X.X.................X.XXX+XooXXXX",
"OoOoooOoooOOoXXooooXoXXoooXXOoOoOOOOooooOOoXOXXOOOoOoooooooooOoo+XoooooooXXXXXXXXXXXXXXXoXXoOOoX++.X.....X..X.X..X.XXX+X.XX.XXXX",
"OOXXOOOOO@OOOOOOOOOOooooooOOoOOOoXXooXXXXXXXOXXXXoooooXoooO@O@@O@@@XXX@@oOOOOXXXXX..XXXX+oO@+ooX..+.+..XXX+XXX.XXXX.XXX.X....X.X",
"O##OOOOO@@OOOOOOOO@O@@@@ooOOoOO@O@OO@@@@OOOO@OOOOoOoooXXXooXXXXXXXoo+oooXXX.X.XX...X.XoXXXX..X.oXX...... ........XXX+X++X+X.Xooo",
"OOOOooOOOOO@@O@O#@OO@@@@OO@OOOo@OOoOo@@OO@@OO#@@@@O#@O@@OOOXOXXO@o@@@@@@OooXXXXXX.XXXXXoXXX.XXXX..XX.XXX++...X.XXXXX.XXXXXX.X.XX",
"OOOOoOOOo+O@@OOOOO#@oo@OOoo#@@@@OOOO@o@@@OO@@@OOOO@Ooo@@O@O@OOOO@@OO@ooooooooooooooOOXOO@@@@oO+oOXX.X..X...+..X+X.XXXXX ....XXX.",
"OOOOOOO@@oO@OOOOOooooo@@ooooOoOOOoOoOooOOOo@o@#@oXooO@@O@OOOO#@##@###@@@@@O@O@+oXoOOOO@OO@@oo@oXOX+XX++.@XX+O++.X+XXXX+++XXXXXXX",
"OOOOOO@@#@@OOOOOO#o@@oO@ooooXXXooXooooXXXXXXoOOXX.XXXXXXXOOoOO#O#ooXX..XXXXXooXXXXoOOoOoo@oooo@oO@XOXO+@XX.......XXXXX.+.XXXX+X+",
"@@@o#@#@oOoo#@o@#OO#OoooOOO@O@oOXOooooooOO@#@@OOoOoooXXoooooooooXoXXX.X...X.XX.XXoXXXXXXXoX.. ...XXO+OXXXX.+OOOOXO+++XOX++++oooX",
"ooOOO@@#@@@@@OoOOOOOo#@OO@o@O@@@@OoO@o@@##@@OOO@@@OOoOOOo@@XXXXX.oXXXXX.XoXXXX.. ......XX.XXXXXXXOX+.....XXXX..XooOOO+@@+XX+oXXX",
"#oo@OOoooo@oXO#@O#OOOO@O@OOo@OXOOo@@@@ooO@@O@@O@#@@@@O@ooo@@#@#@@@@@oo@Ooo+oooXXXoXXX.X.XXoXXXXoX.XXXX#@OX@XX.@XoOO+@+XX........",
"oXoooXoooOOoOOoOOOOO@OoOOXooOOO@@@@@OO@@O@@@O@@OOO@##@@@Oo@@OoOOooXXoXoOoo@oooooOoOo@@@@@@@@@@oo@#O@O@@O+@XXOO@OOOOO+O++X+XX+XXX",
"@@o@@@Oo@OoOXXoooooXXXXXXXXXXXXXXXXX.XXXXooOOXOOOoOOOOOO@oooooOO@+@@OOOO@@@O@@OOoXooXo@o@@@@#@OoOXOO@@+O@@+XXXXOOOO@@+oXoooX+++o",
"@@@@O#@##O@oo@oXooooXOoOXoXOO@XOXXXXXX..XXXX.XXXoXXoOoOooooXoooooXXXXoXOooooOOXoOO@@@$@@++@o@@ooX@O@OX+X.OXO##O#@@@@#@@@+@+@++@@",
"@OO@oOOOOO@#@####@#@@#@@O#O@@OO@@@@@ooooXoOooXOOooOOOooXXoXoXoooo@ooOOOOooXXXX.X..XXXXXXoXoooooXOXXOX@OXXXX....X+X.+@XX++@#+@+o+",
"o@oOooXXoOOOXo@O@#@#@###OO@O#@@@@#@@@@@@@#OOXOOOOOOOOOO#OO@O@@@o@@@@OO#OOooOOoOXOoXoOooOoooooooXXoOXXXOXXX+X+O+X+XX.X..+.XX.oXXX",
"@@O@ooOoOOooOOO@OoooXoooooXXoooOO@ooooOooooXoooXXooooOoO#@O#O@##@@@@@@@@@@@@oOoOo+@@@@@@@@@OO+ooXOX@XOOXOXOXXX.+X.+XXXXOO@OOOO##",
"oooOooooOOOOOOOOO@@@@@@o@@OoOoOoOooooooooOO@@@@@@@oooooXoXooXO@o@O@+Ooo+oooooXXoXXXXX+@@$@$@@OOOOO@@@@@@@@@O@XX@@@@#@OO@#O@OOO+X",
"#@@@####OOOOOOooOOO@@@OXooXXXXXXooO@Oo+OooOoXoO@##@@O##Oo@O@O@o@@@@@@@@@@+oooX.XX..X.....XoXoO++++@@@@@$$###+@@#@$@#@@##@#####$#",
"@#@O@@XXoOOOOOOO@@@O@@@@@@oOoOOXXXXXXoooooO+OOOOoooOOOooooOXOOXooXXXoXoXXX+oooXXXXo+Xo+..+XXXXXXoXoXX.X....X...X.X.XXXoO+XOOXXOO",
"XooXXXXXoOOO@OOOOOOOoOXOoOOOOOOOOOO@OOXXXXoXoXo@oXXXooXXooXX.XXXX.X.....XXXXX.XXX.X.Xo+++ooX.XXXXXXXXX@X.+..X..X+@@O@@#@@@@@O#@@",
"#@@#@@o@XXXXXooooOOOOooOoOoXXoXX.XXXXX.X.o.XXX@o@@@@oO@@@Oo@@oooooooO@#@ooooooX..X+XX..X++O++XXXXXXX+@$#@#@OOO@@@#@@OO@OX.......",
"X.X.XXoooooOOOOooOooOoooOoOoOOOoOOOoOoXXooXXoooOO@@@@#@O@#oOooOOOOoo@oXooooXXXXXXXX.XXoX...   ...XXXXXXXX....OO+@OO@O@#@@@#@++..",
"OXXXoXXXXXX.XooX..... XXXXXXoXXoOXXXXXXXXXX.X.XXoo@Ooo@oo@@o@@@@@#@@@@@@o@ooOOO@+@++OOOoooOo+XX+OOOOOO++@@@O+X+OXOOXOXOOOX.+...+",
"ooOOOO@OOOOoooooOooXXXOOoO##OOOOOOO##OO#OoOOooXOoooooXooooooXOOOOOoXOOOoooXoOXXo++ooOoOooooooX.......... ...++...XXooO@@@@oOO++O",
"XoOO@@O@@@O@@+@@##OOooOXXoXXXOoOXOOOOXOXoOOoOOOOOO@OOOoOoOOOOOXooXXXXXXXXXXXXXXXXXXXXXooXoo.X.X.X..X.......+..+XXooo+@OoXXoOoXXX",
".XXX.+O+XoOo+XX+XXXOOOXXOoOOO#O#OOOO#O#OOoXO@OOOOoooOOOOOO#oOOoOO@@OoOOOOoooOOO@+$Xooo@@o+X@Ooo@@@@O#@@#++++#OO@+++@@oooOXXoXXoo",
" . ....  ..XX...XX.XXXXXXXXXXXXXXOXXXXXXooXXooOO@oOoOoOoOOooOOOoOOOoOOOoOoOOOOOO@+@@@oooX..XXXXX..X.......++.+X++oo+oooo@+@O++XX",
". .....XXo+X....XX.XXX..X.XXXXXXXXXXXXXXoOooXXXXXoXooXXXoXooXXoooXoXoXXXXooXXoooXXXoooOOoo@o+o@++.++.++.+..++.+.oooooooo++Oo+++X",
"oOXXX+X+OoX+XX+XXX......XXXXXXXXXXXXXXXX...XX. XXXXXXXXXoOoOoXXXXXXooXXoOOOOoXX.. .    .... ...X.....XX..++.++O+o@@@oOoXX..XX..X",
" .....X..X..X.XXX.X.XXXX.XXXXXXXXOooXXXOoXX..XXXXXXXooXXoooOXXXXX.XXoXXXXOooO@@@OOoOoOOOo@@oo+oo@X+X@OOO++@++.++ooo+O@+@ooOOOO++",
"   . .....X..X..X.XXX...XXXXXXXXXOXoXoXOXooXXoXoXXoo@@ooXXoooXX......X. .X.X.XoOOXOXXOOOoooooooo@@@@#@@@@@@@@######@O+@+++@@+@@O",
"XXXoXXXXXXX..X.....XX...   ... . ..   . .. .  X..X.. .X..X...XX.........XXooooXXXX.X+XX+o+oo@o@@oo@O@@O@#@@+oXXXXXX.XXXXX.XXo@@o",
"Xo+++ooo+X...X.....XX.XXXX.XXXXXoOooOOXOOXXoXXooXXXXoooXooooooXoO+o+.XXXXoXXXoXXXXXX++ooooo+ooooXXooXo++o++++++oo+o+@@+@+++oXXXX",
"XXX.....X...+XooXXooooo..XXXXXXXXoooXXXoXOXXXXXoXXXXOoooXXoooXoXoOX.XXXoXoXXXX.....XXX.XXooXXX..XXXXooXXXo+@@@o+o@#@@@@#@@o..X..",
"@+++XoOoX+++..XXXX..XXXXXXXXoo++ooooOOoXXXXXooooOOOXOo+oOO@@@OOOO@@@OOO@O@@@o@@ooo@@O+@@ooo@o@o+@ooo+o++@##@+++oo@@+++++@++@oo+o",
"XO@oO++o++oXXooOoXXXXXo+ooXoooOOoOoOOO+oOoXXooX.XXXXX+X+oXXXX+X+ooOOOOO@@@#@@#@@@@@@@#@@@@@@##@@@@@@+@@#####+@@+#@++@+++@+o+oooo",
"......... . .  .XXoXX.....X.XXXXXX.    ..X...XXXX..XoX.XoX.XXoXXXoXXo+oooXXXXXoo@@#@o@@X+@oo@o@o@XXXX+++o+@@@@@@@@##@###@$$@#@XX",
".........X...X.............X.........X.+XX.XXXXX.X..X..X.....XXooXXXXXXXXXXXo@oXX.X.XXXX.XX.......XXXXoX+XXXXooXX...XX.Xo+++ooo@",
"X..........XXXXX+o+o+oX+oo@oO@@O@@@OOO@@OooOooXXoOOOOOO+oOO+oooOOOoXooXOoo@ooo@@@OooXooO+XXXooo@+@++oo+@@@@@@@ooXXXXXX+XXX..XX..",
"++OoXXXXXX.XX. .. .X...X.... .. .X..X.X......XXXXXXX.X..XXXX.XoOoOOo#OO@#@@OO#OO#o@@@##ooo@o+@@O+o@o@+@@@@@oo@@oOOoooOoOoo@OX..X",
"@@#OOOOOOoOXoXoOOOoOOXXoooOOOOoOoOooooXXXXXXXXXXXo++++ooO@ooOOOOO#OooOOoo@@O@O@OXXXXoooooooooo+XX.XoXo+ooXooXXooOoo++O+o+XooOOo@",
"ooXXXXXX......X.oooXoOOOooOX.XXoXXX...       . .X.......  . . ..XXXOoOo#@Oo@O###@#o@ooXX.XoXXXoXX++oX..XXXX+@@o+oO@@@@oO++XXoooo",
"oooXoXoXoXXXXXXXooOXOXoOoXXXXXX.X....... ..   .X..XX.. ...XXXXoXXOOOoO@#@@@@#@@@@@@ooooXoooo@OOo+ooo@@@@++X......oXoOO@@@#@@@@@@",
"OXXXXXXXXXXXXXooXXXOOooXoooXoXooXXX.oOXXoXXXXXooooXX...... ... .X.XXXXooOooooo@oO@oo@oo@@@@ooooo@@@o@@###@@+o++oo@oooXX.XXXXX.Xo",
"#OOOoOXXooXoOOoOOXoOOOoooOOOoXooOXXXXOXOoooXo@oO@@@o+@X+XoOXoXOoXXXXXXXXXXXXXXXXXXXoXXX...oXXXXXXXo@@@@@@@##@#@@#@###@@$$$@O@@#@",
"OOXXXX#X#ooXXooO#OoOOOOoooOooOOoOOXOOOOOOXOOOXOO@oooOO++OXoOoOO@#@@o@O@O@@@@oo@@@@@@oooo@Xo@O@@ooX+o++++@XX+ooXoo@@+OO@OOOOoOOoO",
"OO#O#O##OOOOoO@oOOO@#O#OOOXOO@OoXoOOOOoOoOoOXXXXXXXoooOO@OOOoOOoO@oo@OOo@o@OO@oO@@@@oooo@O@@@+@o+@+@###$#@@@@@@@O@ooOOO@OO@@O@@@"
};
