/* XPM */
static char *menuv1710514136[] = {
/* columns rows colors chars-per-pixel */
"1 600 77 1 ",
"  c #E9CF9E",
". c #E9CF9F",
"X c #EAD09F",
"o c #EACFA0",
"O c #ECD1A2",
"+ c #EDD2A3",
"@ c #EAD4A3",
"# c #EDD6A2",
"$ c #EBD3A5",
"% c #EED3A6",
"& c #EBD5A4",
"* c #EED7A5",
"= c #ECD4A6",
"- c #EDD5A7",
"; c #EFD7A7",
": c #EED8A7",
"> c #EFD7A8",
", c #EFD7A9",
"< c #EDD8A9",
"1 c #EFD9A8",
"2 c #EED9AA",
"3 c #EFDAAB",
"4 c #F0D5A8",
"5 c #F2D7AA",
"6 c #F0D9AC",
"7 c #F2DBAF",
"8 c #F1DCAD",
"9 c #F2DCAF",
"0 c #F2DBB1",
"q c #F1DCB1",
"w c #F3DCB0",
"e c #F3DCB2",
"r c #F3DDB4",
"t c #F2DFB5",
"y c #F5DEB4",
"u c #F4DFB4",
"i c #F5DFB6",
"p c #F3E0B5",
"a c #F3E2B6",
"s c #F4E1B7",
"d c #F5E2B8",
"f c #F5E4B8",
"g c #F7E4B9",
"h c #F6E5B9",
"j c #F6E5BA",
"k c #F7E6BA",
"l c #F8E2B9",
"z c #F8E5BA",
"x c #F9E4BB",
"c c #F8E5BB",
"v c #FAE7BC",
"b c #F7E8BD",
"n c #F9E9BE",
"m c #F8E8C0",
"M c #F9EAC1",
"N c #F9ECC0",
"B c #FBECC1",
"V c #FBECC3",
"C c #FBEEC4",
"Z c #FAECC7",
"A c #FEECC4",
"S c #FCEFC5",
"D c #FCEEC7",
"F c #FCEEC9",
"G c #FDEFC9",
"H c #FCEFCC",
"J c #FCF0C8",
"K c #FEF0C9",
"L c #FCF0CA",
"P c #FEF0CB",
"I c #FEF2CA",
"U c #FFF3CD",
"Y c #FEF1CE",
"T c #FFF5CF",
"R c #FFF3D1",
"E c #FFF4D1",
"W c #FFF4D2",
/* pixels */
"o",
"o",
"o",
"o",
"o",
"o",
"o",
"o",
"o",
".",
".",
".",
".",
".",
"X",
"X",
"X",
"X",
"X",
"X",
"X",
"X",
"X",
".",
".",
".",
".",
".",
".",
".",
".",
".",
".",
".",
"O",
".",
"O",
"O",
"O",
"O",
"%",
"O",
"+",
"+",
"+",
"+",
"+",
"O",
"#",
"#",
"#",
"#",
"#",
"%",
"O",
"%",
"#",
"&",
"&",
"&",
"&",
"&",
"@",
"@",
"@",
"&",
"&",
"&",
"&",
">",
"$",
"$",
"$",
"=",
">",
"=",
"=",
">",
"%",
"%",
"4",
"4",
"4",
"4",
"4",
"4",
"4",
"4",
"4",
"4",
"4",
"4",
"5",
"5",
"5",
"5",
"4",
"7",
">",
">",
">",
">",
">",
">",
",",
"2",
">",
"2",
">",
"2",
">",
",",
"2",
"<",
"2",
"2",
"2",
"2",
"2",
"2",
"2",
"q",
"q",
"q",
"2",
"q",
"q",
"6",
"9",
"9",
"8",
"9",
"9",
"9",
"9",
"9",
"9",
"9",
"9",
"9",
"9",
"9",
"q",
"q",
"q",
"q",
"q",
"q",
"q",
"q",
"p",
"q",
"q",
"p",
"9",
"p",
"9",
"p",
"p",
"y",
"9",
"p",
"p",
"y",
"p",
"y",
"p",
"y",
"p",
"y",
"p",
"p",
"p",
"p",
"g",
"g",
"t",
"t",
"t",
"p",
"g",
"t",
"p",
"g",
"t",
"c",
"g",
"c",
"f",
"p",
"g",
"g",
"g",
"g",
"a",
"g",
"a",
"g",
"g",
"g",
"k",
"g",
"j",
"j",
"j",
"j",
"g",
"j",
"f",
"b",
"g",
"g",
"g",
"g",
"b",
"k",
"g",
"k",
"c",
"c",
"v",
"v",
"v",
"v",
"v",
"n",
"n",
"k",
"n",
"b",
"n",
"b",
"N",
"b",
"b",
"b",
"n",
"b",
"N",
"N",
"n",
"N",
"N",
"N",
"N",
"N",
"N",
"N",
"N",
"V",
"N",
"V",
"V",
"N",
"S",
"N",
"S",
"S",
"N",
"S",
"S",
"S",
"S",
"K",
"F",
"C",
"K",
"F",
"C",
"K",
"C",
"C",
"A",
"A",
"F",
"A",
"F",
"F",
"K",
"F",
"Y",
"F",
"F",
"K",
"F",
"K",
"Y",
"F",
"Y",
"K",
"K",
"K",
"K",
"L",
"K",
"K",
"K",
"U",
"I",
"I",
"K",
"I",
"K",
"U",
"K",
"K",
"K",
"I",
"U",
"K",
"W",
"W",
"W",
"R",
"R",
"R",
"R",
"R",
"R",
"R",
"R",
"R",
"R",
"W",
"W",
"U",
"W",
"W",
"W",
"W",
"W",
"W",
"W",
"W",
"W",
"W",
"W",
"W",
"W",
"W",
"I",
"W",
"U",
"W",
"T",
"T",
"U",
"W",
"W",
"W",
"W",
"W",
"W",
"W",
"W",
"W",
"U",
"W",
"W",
"W",
"W",
"U",
"T",
"W",
"W",
"W",
"W",
"W",
"W",
"U",
"T",
"W",
"W",
"W",
"W",
"T",
"T",
"T",
"T",
"T",
"W",
"U",
"T",
"U",
"T",
"U",
"T",
"U",
"T",
"U",
"T",
"U",
"T",
"U",
"W",
"U",
"U",
"T",
"W",
"W",
"W",
"W",
"W",
"W",
"U",
"T",
"W",
"W",
"W",
"W",
"W",
"W",
"W",
"W",
"W",
"W",
"W",
"W",
"W",
"U",
"T",
"W",
"W",
"U",
"U",
"U",
"T",
"T",
"T",
"T",
"T",
"U",
"T",
"U",
"T",
"U",
"U",
"U",
"U",
"U",
"U",
"U",
"Y",
"U",
"K",
"K",
"Y",
"K",
"Y",
"K",
"K",
"U",
"I",
"K",
"K",
"K",
"K",
"L",
"L",
"K",
"L",
"S",
"K",
"F",
"F",
"F",
"Z",
"Z",
"Z",
"m",
"m",
"F",
"M",
"n",
"N",
"C",
"M",
"m",
"n",
"c",
"n",
"c",
"c",
"v",
"v",
"c",
"c",
"c",
"l",
"v",
"y",
"l",
"x",
"i",
"i",
"i",
"y",
"y",
"y",
"y",
"t",
"y",
"e",
"e",
"e",
"e",
"e",
"7",
"7",
"7",
",",
"7",
",",
"2",
"7",
",",
"7",
"4",
"5",
"5",
">",
">",
">",
">",
",",
",",
",",
",",
",",
",",
"7",
",",
"5",
">",
">",
">",
">",
">",
">",
"=",
">",
">",
">",
">",
">",
"%",
"%",
":",
"#",
":",
"#",
":",
":",
"#",
":",
"#",
":",
":",
"#",
":",
"#",
":",
":",
"*",
"*",
"*",
"*",
"*",
"*",
"*",
"*",
"*",
"*",
"*",
"*",
"*",
"*",
"*",
"*",
"*",
"*",
"%",
"*",
"%",
"X",
"1",
"#",
"&",
"1",
"&",
"&",
":",
"&",
"&",
":",
":",
":",
":",
"1",
"9"
};
